<svg width="90" height="24" viewBox="0 0 90 24" fill="none" xmlns="http://www.w3.org/2000/svg">
<path d="M12.596 7.55512L7.44837 7.55512L7.44837 11.0818H12.1328V12.9521H7.44837V18.0996H5.40002L5.40002 5.63145L12.596 5.63145V7.55512Z" fill="black"/>
<path d="M20.4421 18.3312C18.5541 18.3312 16.9867 17.7197 15.7399 16.4966C14.493 15.2616 13.8696 13.718 13.8696 11.8655C13.8696 10.0131 14.493 8.47539 15.7399 7.25232C16.9867 6.01737 18.5541 5.3999 20.4421 5.3999C22.3302 5.3999 23.8976 6.01737 25.1444 7.25232C26.3913 8.47539 27.0147 10.0131 27.0147 11.8655C27.0147 13.0767 26.7297 14.1811 26.1597 15.1785C25.6016 16.1641 24.8179 16.9359 23.8086 17.494C22.8111 18.0521 21.689 18.3312 20.4421 18.3312ZM17.236 15.0895C18.091 15.9444 19.1597 16.3719 20.4421 16.3719C21.7365 16.3719 22.8052 15.9444 23.6483 15.0895C24.5032 14.2226 24.9307 13.148 24.9307 11.8655C24.9307 10.5831 24.5032 9.5144 23.6483 8.65944C22.8052 7.79261 21.7365 7.35919 20.4421 7.35919C19.1597 7.35919 18.091 7.79261 17.236 8.65944C16.3811 9.5144 15.9536 10.5831 15.9536 11.8655C15.9536 13.148 16.3811 14.2226 17.236 15.0895Z" fill="black"/>
<path d="M36.4757 18.0996L33.804 13.4864L31.435 13.4864L31.435 18.0996H29.3867L29.3867 5.63145L34.2493 5.63145C35.033 5.63145 35.7455 5.7977 36.3867 6.13018C37.0279 6.46267 37.5266 6.93171 37.8829 7.53731C38.251 8.1429 38.435 8.81975 38.435 9.56784C38.435 10.4109 38.2035 11.159 37.7404 11.8121C37.2773 12.4533 36.6598 12.9164 35.888 13.2014L38.7735 18.0996H36.4757ZM29.3867 7.55512V11.5627H34.1246C34.4571 11.5627 34.7599 11.5153 35.033 11.4203C35.318 11.3253 35.5555 11.1887 35.7455 11.0106C35.9355 10.8325 36.0839 10.6187 36.1908 10.3694C36.2976 10.12 36.3511 9.84689 36.3511 9.55003C36.3511 8.96818 36.1433 8.4932 35.7276 8.12509C35.3239 7.74511 34.7896 7.55512 34.1246 7.55512L29.3867 7.55512Z" fill="black"/>
<path d="M48.9377 5.63145V7.53731L45.2685 7.53731V18.0996H43.2379V7.53731L39.5687 7.53731V5.63145L48.9377 5.63145Z" fill="black"/>
<path d="M52.9517 16.1582H58.3487V18.0996H50.9034V5.63145L58.1527 5.63145V7.55512L52.9517 7.55512V10.7968H57.6896V12.6849H52.9517V16.1582Z" fill="black"/>
<path d="M66.2026 18.3134C64.3621 18.3134 62.8303 17.7078 61.6072 16.4966C60.396 15.2735 59.7904 13.7298 59.7904 11.8655C59.7904 10.0013 60.396 8.46351 61.6072 7.25232C62.8303 6.02925 64.3621 5.41772 66.2026 5.41772C67.1763 5.41772 68.0788 5.60771 68.91 5.98769C69.7412 6.36767 70.4359 6.90796 70.994 7.60855C71.564 8.30915 71.9558 9.12255 72.1696 10.0488H70.1034C69.8065 9.21754 69.3138 8.57038 68.625 8.10728C67.9363 7.6323 67.1288 7.39481 66.2026 7.39481C64.9558 7.39481 63.9227 7.81636 63.1034 8.65944C62.2841 9.50253 61.8744 10.5772 61.8744 11.8834C61.8744 13.1777 62.2841 14.2464 63.1034 15.0895C63.9227 15.9207 64.9558 16.3363 66.2026 16.3363C67.1526 16.3363 67.9779 16.0869 68.6785 15.5882C69.3791 15.0776 69.8659 14.3829 70.139 13.5042H72.223C71.9024 14.9648 71.1958 16.1344 70.1034 17.0131C69.0109 17.88 67.7107 18.3134 66.2026 18.3134Z" fill="black"/>
<path d="M82.1337 5.63145H84.182V18.0996H82.1337V12.6671L76.4339 12.6671V18.0996H74.3856V5.63145L76.4339 5.63145V10.7256L82.1337 10.7256V5.63145Z" fill="black"/>
<path d="M89.25 0.75V23.25H0.75V0.75H89.25Z" stroke="black" stroke-width="1.5"/>
</svg>
