<svg width="29" height="29" viewBox="0 0 29 29" fill="none" xmlns="http://www.w3.org/2000/svg">
<path d="M3.01416 14.4681C3.01416 9.06905 3.01416 6.36834 4.69125 4.69125C6.36834 3.01416 9.06785 3.01416 14.4681 3.01416C19.8671 3.01416 22.5678 3.01416 24.2449 4.69125C25.922 6.36834 25.922 9.06785 25.922 14.4681C25.922 19.8671 25.922 22.5678 24.2449 24.2449C22.5678 25.922 19.8683 25.922 14.4681 25.922C9.06905 25.922 6.36834 25.922 4.69125 24.2449C3.01416 22.5678 3.01416 19.8683 3.01416 14.4681Z" stroke="white" stroke-width="1.80851" stroke-linecap="round" stroke-linejoin="round"/>
<path d="M21.109 7.83691H21.0969M19.8937 14.4681C19.8937 15.9071 19.322 17.2871 18.3046 18.3046C17.2871 19.322 15.9071 19.8937 14.4681 19.8937C13.0292 19.8937 11.6492 19.322 10.6317 18.3046C9.61422 17.2871 9.0426 15.9071 9.0426 14.4681C9.0426 13.0292 9.61422 11.6492 10.6317 10.6317C11.6492 9.61421 13.0292 9.04259 14.4681 9.04259C15.9071 9.04259 17.2871 9.61421 18.3046 10.6317C19.322 11.6492 19.8937 13.0292 19.8937 14.4681Z" stroke="white" stroke-width="1.80851" stroke-linecap="round" stroke-linejoin="round"/>
</svg>
