<svg width="20" height="20" viewBox="0 0 20 20" fill="none" xmlns="http://www.w3.org/2000/svg">
<path d="M10.8567 1.66667C11.7942 1.66917 12.27 1.67417 12.6808 1.68583L12.8425 1.69167C13.0292 1.69833 13.2133 1.70667 13.4358 1.71667C14.3225 1.75833 14.9275 1.89833 15.4583 2.10417C16.0083 2.31583 16.4717 2.6025 16.935 3.065C17.3588 3.48158 17.6866 3.98549 17.8958 4.54167C18.1017 5.0725 18.2417 5.6775 18.2833 6.565C18.2933 6.78667 18.3017 6.97084 18.3083 7.15834L18.3133 7.32C18.3258 7.73 18.3308 8.20583 18.3325 9.14333L18.3333 9.765V10.8567C18.3354 11.4645 18.329 12.0723 18.3142 12.68L18.3092 12.8417C18.3025 13.0292 18.2942 13.2133 18.2842 13.435C18.2425 14.3225 18.1008 14.9267 17.8958 15.4583C17.6872 16.0148 17.3593 16.5189 16.935 16.935C16.5183 17.3586 16.0144 17.6865 15.4583 17.8958C14.9275 18.1017 14.3225 18.2417 13.4358 18.2833C13.2381 18.2926 13.0403 18.301 12.8425 18.3083L12.6808 18.3133C12.27 18.325 11.7942 18.3308 10.8567 18.3325L10.235 18.3333H9.14418C8.53606 18.3354 7.92795 18.329 7.32001 18.3142L7.15835 18.3092C6.96052 18.3017 6.76274 18.2931 6.56501 18.2833C5.67835 18.2417 5.07335 18.1017 4.54168 17.8958C3.98557 17.687 3.48186 17.359 3.06585 16.935C2.64172 16.5186 2.31353 16.0146 2.10418 15.4583C1.89835 14.9275 1.75835 14.3225 1.71668 13.435C1.7074 13.2373 1.69906 13.0395 1.69168 12.8417L1.68751 12.68C1.67216 12.0723 1.66521 11.4645 1.66668 10.8567V9.14333C1.66435 8.5355 1.67047 7.92767 1.68501 7.32L1.69085 7.15834C1.69751 6.97084 1.70585 6.78667 1.71585 6.565C1.75751 5.6775 1.89751 5.07333 2.10335 4.54167C2.31261 3.98492 2.64145 3.48085 3.06668 3.065C3.48259 2.64123 3.98597 2.31332 4.54168 2.10417C5.07335 1.89833 5.67751 1.75833 6.56501 1.71667C6.78668 1.70667 6.97168 1.69833 7.15835 1.69167L7.32001 1.68667C7.92767 1.67186 8.53551 1.66547 9.14335 1.6675L10.8567 1.66667ZM10 5.83333C8.89494 5.83333 7.83514 6.27232 7.05373 7.05372C6.27233 7.83512 5.83335 8.89493 5.83335 10C5.83335 11.1051 6.27233 12.1649 7.05373 12.9463C7.83514 13.7277 8.89494 14.1667 10 14.1667C11.1051 14.1667 12.1649 13.7277 12.9463 12.9463C13.7277 12.1649 14.1667 11.1051 14.1667 10C14.1667 8.89493 13.7277 7.83512 12.9463 7.05372C12.1649 6.27232 11.1051 5.83333 10 5.83333ZM10 7.5C10.3283 7.49995 10.6534 7.56456 10.9568 7.69014C11.2601 7.81573 11.5357 7.99983 11.7679 8.23194C12.0001 8.46405 12.1843 8.73962 12.31 9.04291C12.4357 9.3462 12.5004 9.67128 12.5004 9.99959C12.5005 10.3279 12.4359 10.653 12.3103 10.9563C12.1847 11.2597 12.0006 11.5353 11.7685 11.7675C11.5364 11.9997 11.2608 12.1839 10.9575 12.3095C10.6542 12.4352 10.3292 12.4999 10.0008 12.5C9.33781 12.5 8.70192 12.2366 8.23308 11.7678C7.76424 11.2989 7.50085 10.663 7.50085 10C7.50085 9.33696 7.76424 8.70108 8.23308 8.23223C8.70192 7.76339 9.33781 7.5 10.0008 7.5M14.3758 4.58333C14.0996 4.58333 13.8346 4.69308 13.6393 4.88843C13.4439 5.08378 13.3342 5.34873 13.3342 5.625C13.3342 5.90127 13.4439 6.16622 13.6393 6.36157C13.8346 6.55692 14.0996 6.66667 14.3758 6.66667C14.6521 6.66667 14.9171 6.55692 15.1124 6.36157C15.3078 6.16622 15.4175 5.90127 15.4175 5.625C15.4175 5.34873 15.3078 5.08378 15.1124 4.88843C14.9171 4.69308 14.6521 4.58333 14.3758 4.58333Z" fill="white"/>
</svg>
